  <svg xmlns="http://www.w3.org/2000/svg" viewBox="0 0 290.39 239.91">
  <g id="Layer_2" data-name="Layer 2">
    <g id="Layer_1-2" data-name="Layer 1">
      <g>
        <path d="M0,176.13V63.85H3.06c23.46,0,46.92,0,70.38-.06a7,7,0,0,0,4.18-1.53q35-30.07,69.93-60.29c.68-.59,1.4-1.15,2.4-2V239.91c-.81-.63-1.45-1.09-2-1.6q-35.06-30.23-70.08-60.5a6.57,6.57,0,0,0-4.69-1.71q-34.93.08-69.88,0Z"/>
        <path d="M248.09,225.24,228.7,207.32c-.78-.72-1.55-1.47-2.47-2.34,23.53-25.5,34-55.75,34-90S249.71,50.5,226.2,25L248.09,4.8C304.37,61.45,304.6,168.23,248.09,225.24Z"/>
        <path d="M204.18,184.64,183.54,163q20.66-19.65,20.68-48c0-18.88-6.9-34.8-20.69-47.94l20.55-21.53C242.7,79,245.92,146.74,204.18,184.64Z"/>
      </g>
    </g>
  </g>
</svg>
